<svg width="76" height="73" viewBox="0 0 76 73" fill="none" xmlns="http://www.w3.org/2000/svg">
<circle cx="23.3712" cy="23.3712" r="23.3712" transform="matrix(-0.866025 -0.5 0.866025 -0.5 37.1689 65.0991)" fill="#F6B34E"/>
<rect x="65.792" y="41.8091" width="3.59004" height="10.3485" transform="rotate(179.988 65.792 41.8091)" fill="#F6B34E"/>
<rect x="11.7139" y="41.7266" width="3.18448" height="10.8453" transform="rotate(-179.648 11.7139 41.7266)" fill="#F6B34E"/>
<circle cx="23.3712" cy="23.3712" r="23.3712" transform="matrix(-0.866025 -0.5 0.866025 -0.5 37.2114 54.2764)" fill="url(#paint0_linear_215_316)"/>
<path d="M29.1145 35.5374L32.6037 37.5519L35.1054 36.1076L36.9817 37.1908L34.48 38.6352L38.0022 40.6687L40.5039 39.2243L43.2031 40.7827L47.3178 38.4071L44.6185 36.8487L51.8274 32.6867L48.3053 30.6532L41.0964 34.8152L39.2859 33.77L40.9318 32.8197C47.6798 28.9237 48.7003 25.3698 43.631 22.4431C38.7263 19.6114 33.1962 19.9535 25.9215 24.1535L20.161 27.4794L31.6162 34.093L29.1145 35.5374ZM29.8716 26.016C33.8875 23.6974 36.6196 23.2983 39.3188 24.8567C42.2485 26.5481 41.4585 28.3726 37.6071 30.5962L35.6979 31.6984L27.8636 27.1753L29.8716 26.016Z" fill="#D17E00"/>
<defs>
<linearGradient id="paint0_linear_215_316" x1="23.3712" y1="0" x2="23.3712" y2="46.7423" gradientUnits="userSpaceOnUse">
<stop stop-color="#F9D97B"/>
<stop offset="1" stop-color="#F6B34E"/>
</linearGradient>
</defs>
</svg>
